<svg xmlns="http://www.w3.org/2000/svg" width="480" height="480" viewBox="0 0 480 480">
  <circle cx="168.9" cy="206.5" r="2.00" fill="rgba(57,208,216,0.09)"/>
  <circle cx="246.0" cy="188.4" r="1.09" fill="rgba(57,208,216,0.09)"/>
  <circle cx="11.4" cy="49.2" r="1.58" fill="rgba(240,238,248,0.10)"/>
  <circle cx="231.1" cy="262.4" r="3.02" fill="rgba(240,238,248,0.10)"/>
  <circle cx="272.4" cy="110.4" r="2.15" fill="rgba(57,208,216,0.09)"/>
  <circle cx="459.7" cy="16.0" r="1.82" fill="rgba(240,238,248,0.10)"/>
  <circle cx="288.5" cy="267.7" r="2.68" fill="rgba(57,208,216,0.09)"/>
  <circle cx="403.5" cy="439.2" r="1.08" fill="rgba(57,208,216,0.09)"/>
  <circle cx="174.2" cy="184.1" r="2.19" fill="rgba(57,208,216,0.09)"/>
  <circle cx="311.4" cy="422.9" r="3.04" fill="rgba(240,238,248,0.10)"/>
  <circle cx="104.9" cy="357.2" r="2.70" fill="rgba(240,238,248,0.10)"/>
  <circle cx="323.9" cy="137.4" r="2.70" fill="rgba(57,208,216,0.09)"/>
  <circle cx="266.5" cy="125.6" r="2.17" fill="rgba(232,23,93,0.11)"/>
  <circle cx="149.9" cy="374.2" r="1.57" fill="rgba(240,238,248,0.10)"/>
  <circle cx="383.8" cy="291.0" r="2.38" fill="rgba(232,23,93,0.11)"/>
  <circle cx="233.0" cy="461.9" r="3.17" fill="rgba(240,238,248,0.10)"/>
  <circle cx="213.1" cy="470.9" r="2.20" fill="rgba(240,238,248,0.10)"/>
  <circle cx="39.7" cy="127.6" r="2.79" fill="rgba(240,238,248,0.10)"/>
  <circle cx="375.5" cy="209.1" r="3.02" fill="rgba(232,23,93,0.11)"/>
  <circle cx="127.2" cy="309.3" r="2.14" fill="rgba(240,238,248,0.10)"/>
  <circle cx="226.5" cy="339.9" r="2.76" fill="rgba(57,208,216,0.09)"/>
  <circle cx="10.7" cy="116.6" r="1.76" fill="rgba(240,238,248,0.10)"/>
  <circle cx="459.9" cy="332.1" r="1.39" fill="rgba(240,238,248,0.10)"/>
  <circle cx="61.4" cy="65.6" r="2.73" fill="rgba(57,208,216,0.09)"/>
  <circle cx="188.3" cy="128.1" r="1.00" fill="rgba(232,23,93,0.11)"/>
  <circle cx="32.2" cy="9.9" r="1.09" fill="rgba(232,23,93,0.11)"/>
  <circle cx="245.6" cy="235.7" r="2.72" fill="rgba(240,238,248,0.10)"/>
  <circle cx="253.6" cy="270.5" r="1.02" fill="rgba(232,23,93,0.11)"/>
  <circle cx="401.2" cy="442.5" r="1.74" fill="rgba(240,238,248,0.10)"/>
  <circle cx="421.2" cy="112.6" r="1.13" fill="rgba(232,23,93,0.11)"/>
  <circle cx="42.5" cy="25.9" r="2.21" fill="rgba(57,208,216,0.09)"/>
  <circle cx="430.3" cy="256.7" r="2.21" fill="rgba(240,238,248,0.10)"/>
  <circle cx="297.1" cy="475.0" r="1.18" fill="rgba(245,230,66,0.07)"/>
  <circle cx="267.1" cy="457.6" r="1.91" fill="rgba(57,208,216,0.09)"/>
  <circle cx="145.3" cy="405.3" r="2.08" fill="rgba(232,23,93,0.11)"/>
  <circle cx="466.0" cy="56.2" r="2.01" fill="rgba(240,238,248,0.10)"/>
  <circle cx="395.4" cy="208.6" r="2.24" fill="rgba(240,238,248,0.10)"/>
  <circle cx="31.8" cy="378.8" r="2.72" fill="rgba(245,230,66,0.07)"/>
  <circle cx="54.8" cy="117.7" r="2.75" fill="rgba(232,23,93,0.11)"/>
  <circle cx="10.8" cy="47.1" r="2.01" fill="rgba(245,230,66,0.07)"/>
  <circle cx="132.9" cy="261.6" r="2.53" fill="rgba(240,238,248,0.10)"/>
  <circle cx="462.3" cy="90.9" r="2.50" fill="rgba(232,23,93,0.11)"/>
  <circle cx="126.4" cy="231.7" r="1.15" fill="rgba(240,238,248,0.10)"/>
  <circle cx="422.0" cy="340.3" r="2.32" fill="rgba(240,238,248,0.10)"/>
  <circle cx="379.6" cy="277.7" r="1.91" fill="rgba(240,238,248,0.10)"/>
  <circle cx="431.2" cy="351.5" r="1.20" fill="rgba(240,238,248,0.10)"/>
  <circle cx="245.9" cy="146.4" r="3.10" fill="rgba(240,238,248,0.10)"/>
  <circle cx="172.9" cy="52.2" r="3.05" fill="rgba(240,238,248,0.10)"/>
  <circle cx="357.1" cy="173.1" r="1.77" fill="rgba(240,238,248,0.10)"/>
  <circle cx="444.3" cy="304.3" r="1.59" fill="rgba(232,23,93,0.11)"/>
  <circle cx="100.4" cy="408.5" r="2.81" fill="rgba(240,238,248,0.10)"/>
  <circle cx="213.7" cy="372.3" r="1.70" fill="rgba(240,238,248,0.10)"/>
  <circle cx="74.5" cy="230.3" r="1.06" fill="rgba(240,238,248,0.10)"/>
  <circle cx="249.7" cy="294.7" r="2.89" fill="rgba(57,208,216,0.09)"/>
  <circle cx="145.5" cy="448.0" r="1.93" fill="rgba(245,230,66,0.07)"/>
  <circle cx="458.6" cy="241.6" r="2.13" fill="rgba(57,208,216,0.09)"/>
  <circle cx="11.1" cy="292.3" r="2.92" fill="rgba(240,238,248,0.10)"/>
  <circle cx="438.7" cy="282.9" r="2.31" fill="rgba(240,238,248,0.10)"/>
  <circle cx="221.7" cy="268.0" r="2.50" fill="rgba(57,208,216,0.09)"/>
  <circle cx="20.5" cy="294.2" r="1.40" fill="rgba(232,23,93,0.11)"/>
  <circle cx="197.3" cy="107.7" r="1.39" fill="rgba(240,238,248,0.10)"/>
  <circle cx="2.1" cy="66.8" r="1.16" fill="rgba(57,208,216,0.09)"/>
  <circle cx="184.5" cy="356.1" r="2.39" fill="rgba(240,238,248,0.10)"/>
  <circle cx="245.4" cy="49.0" r="2.74" fill="rgba(57,208,216,0.09)"/>
  <circle cx="427.3" cy="50.0" r="2.36" fill="rgba(240,238,248,0.10)"/>
  <circle cx="239.3" cy="210.8" r="2.82" fill="rgba(57,208,216,0.09)"/>
  <circle cx="242.7" cy="207.6" r="3.01" fill="rgba(57,208,216,0.09)"/>
  <circle cx="406.9" cy="63.6" r="2.57" fill="rgba(245,230,66,0.07)"/>
  <circle cx="312.0" cy="50.3" r="2.07" fill="rgba(240,238,248,0.10)"/>
  <circle cx="171.4" cy="14.3" r="2.37" fill="rgba(232,23,93,0.11)"/>
  <circle cx="107.6" cy="309.2" r="2.12" fill="rgba(240,238,248,0.10)"/>
  <circle cx="366.7" cy="147.2" r="2.33" fill="rgba(240,238,248,0.10)"/>
  <circle cx="30.0" cy="345.4" r="2.07" fill="rgba(57,208,216,0.09)"/>
  <circle cx="293.1" cy="3.4" r="2.92" fill="rgba(240,238,248,0.10)"/>
  <circle cx="300.2" cy="266.1" r="2.76" fill="rgba(232,23,93,0.11)"/>
  <circle cx="30.9" cy="283.1" r="1.53" fill="rgba(240,238,248,0.10)"/>
  <circle cx="38.4" cy="247.2" r="2.58" fill="rgba(232,23,93,0.11)"/>
  <circle cx="60.5" cy="189.0" r="1.77" fill="rgba(240,238,248,0.10)"/>
  <circle cx="141.5" cy="307.5" r="2.49" fill="rgba(57,208,216,0.09)"/>
  <circle cx="43.2" cy="150.8" r="1.08" fill="rgba(240,238,248,0.10)"/>
  <circle cx="65.0" cy="158.5" r="3.14" fill="rgba(240,238,248,0.10)"/>
  <circle cx="369.0" cy="318.4" r="3.08" fill="rgba(245,230,66,0.07)"/>
  <circle cx="262.1" cy="361.4" r="2.50" fill="rgba(57,208,216,0.09)"/>
  <circle cx="250.2" cy="204.2" r="1.97" fill="rgba(240,238,248,0.10)"/>
  <circle cx="349.3" cy="10.9" r="3.13" fill="rgba(232,23,93,0.11)"/>
  <circle cx="450.4" cy="432.6" r="1.97" fill="rgba(240,238,248,0.10)"/>
  <circle cx="46.2" cy="160.6" r="2.63" fill="rgba(232,23,93,0.11)"/>
  <circle cx="468.2" cy="362.2" r="3.01" fill="rgba(240,238,248,0.10)"/>
  <circle cx="225.0" cy="438.9" r="2.14" fill="rgba(240,238,248,0.10)"/>
  <circle cx="57.4" cy="442.7" r="1.44" fill="rgba(232,23,93,0.11)"/>
  <circle cx="236.9" cy="441.7" r="2.49" fill="rgba(240,238,248,0.10)"/>
  <circle cx="34.8" cy="358.4" r="2.99" fill="rgba(57,208,216,0.09)"/>
  <circle cx="308.1" cy="409.3" r="1.01" fill="rgba(57,208,216,0.09)"/>
  <circle cx="92.3" cy="103.2" r="2.98" fill="rgba(232,23,93,0.11)"/>
  <circle cx="462.9" cy="295.8" r="2.75" fill="rgba(240,238,248,0.10)"/>
  <circle cx="144.8" cy="321.4" r="1.93" fill="rgba(245,230,66,0.07)"/>
  <circle cx="200.8" cy="363.3" r="3.12" fill="rgba(232,23,93,0.11)"/>
  <circle cx="271.2" cy="330.9" r="2.08" fill="rgba(57,208,216,0.09)"/>
  <circle cx="28.1" cy="11.5" r="1.42" fill="rgba(57,208,216,0.09)"/>
  <circle cx="249.7" cy="165.7" r="3.13" fill="rgba(240,238,248,0.10)"/>
  <circle cx="479.6" cy="301.2" r="1.97" fill="rgba(240,238,248,0.10)"/>
  <circle cx="476.6" cy="31.4" r="2.04" fill="rgba(232,23,93,0.11)"/>
  <circle cx="77.9" cy="109.2" r="1.93" fill="rgba(240,238,248,0.10)"/>
  <circle cx="142.4" cy="54.8" r="2.24" fill="rgba(232,23,93,0.11)"/>
  <circle cx="256.0" cy="255.5" r="2.04" fill="rgba(240,238,248,0.10)"/>
  <circle cx="159.6" cy="437.4" r="2.48" fill="rgba(240,238,248,0.10)"/>
  <circle cx="156.2" cy="389.3" r="2.18" fill="rgba(240,238,248,0.10)"/>
  <circle cx="52.5" cy="149.3" r="1.11" fill="rgba(232,23,93,0.11)"/>
  <circle cx="394.2" cy="251.6" r="2.35" fill="rgba(232,23,93,0.11)"/>
  <circle cx="266.2" cy="23.6" r="2.96" fill="rgba(245,230,66,0.07)"/>
  <circle cx="43.1" cy="133.1" r="2.49" fill="rgba(240,238,248,0.10)"/>
  <circle cx="189.8" cy="167.0" r="2.95" fill="rgba(57,208,216,0.09)"/>
  <circle cx="342.9" cy="25.0" r="3.02" fill="rgba(245,230,66,0.07)"/>
  <circle cx="349.7" cy="159.7" r="1.20" fill="rgba(240,238,248,0.10)"/>
  <circle cx="454.8" cy="179.3" r="1.22" fill="rgba(57,208,216,0.09)"/>
  <circle cx="84.7" cy="14.3" r="2.27" fill="rgba(240,238,248,0.10)"/>
  <circle cx="389.8" cy="468.3" r="1.28" fill="rgba(57,208,216,0.09)"/>
  <circle cx="3.7" cy="205.3" r="2.56" fill="rgba(240,238,248,0.10)"/>
  <circle cx="61.2" cy="371.1" r="2.63" fill="rgba(240,238,248,0.10)"/>
  <circle cx="180.3" cy="307.9" r="3.19" fill="rgba(57,208,216,0.09)"/>
  <circle cx="396.1" cy="70.8" r="1.09" fill="rgba(57,208,216,0.09)"/>
  <circle cx="350.9" cy="61.6" r="3.00" fill="rgba(232,23,93,0.11)"/>
  <circle cx="248.9" cy="61.1" r="2.88" fill="rgba(240,238,248,0.10)"/>
  <circle cx="273.6" cy="422.6" r="2.20" fill="rgba(240,238,248,0.10)"/>
  <circle cx="294.0" cy="278.9" r="1.05" fill="rgba(240,238,248,0.10)"/>
  <circle cx="286.9" cy="277.6" r="2.39" fill="rgba(232,23,93,0.11)"/>
  <circle cx="111.0" cy="56.3" r="2.97" fill="rgba(57,208,216,0.09)"/>
  <circle cx="232.5" cy="387.3" r="2.08" fill="rgba(240,238,248,0.10)"/>
  <circle cx="290.4" cy="196.7" r="3.04" fill="rgba(245,230,66,0.07)"/>
  <circle cx="88.1" cy="205.4" r="2.73" fill="rgba(240,238,248,0.10)"/>
  <circle cx="235.0" cy="195.9" r="1.82" fill="rgba(57,208,216,0.09)"/>
  <circle cx="430.7" cy="189.3" r="2.82" fill="rgba(232,23,93,0.11)"/>
  <circle cx="366.2" cy="129.0" r="2.03" fill="rgba(232,23,93,0.11)"/>
  <circle cx="423.4" cy="316.6" r="2.30" fill="rgba(57,208,216,0.09)"/>
  <circle cx="306.5" cy="427.6" r="2.46" fill="rgba(240,238,248,0.10)"/>
  <circle cx="70.8" cy="125.0" r="1.35" fill="rgba(240,238,248,0.10)"/>
  <circle cx="382.5" cy="197.9" r="2.58" fill="rgba(232,23,93,0.11)"/>
  <circle cx="452.7" cy="158.8" r="2.45" fill="rgba(232,23,93,0.11)"/>
  <circle cx="465.0" cy="321.1" r="1.39" fill="rgba(240,238,248,0.10)"/>
  <circle cx="442.5" cy="318.9" r="1.54" fill="rgba(240,238,248,0.10)"/>
</svg>